<?xml version="1.0" encoding="utf-8"?>
<!-- Generator: Adobe Illustrator 18.1.1, SVG Export Plug-In . SVG Version: 6.00 Build 0)  -->
<svg version="1.1" id="Capa_1" xmlns="http://www.w3.org/2000/svg" xmlns:xlink="http://www.w3.org/1999/xlink" x="0px" y="0px"
	 viewBox="0 0 566.9 566.9" enable-background="new 0 0 566.9 566.9" xml:space="preserve">
<g>
	<path fill="#DBB335" d="M137.8,277.9l97.8-97.8c-4.8,4.8-228.3,227.7,115.1-115c23.2-23.2,50.9-30.1,82.1-18.6
		c22.6,8.3,37.9,24.9,44.8,48c7.7,25.9,4.4,51.2-14.7,70.4c-19.3,19.5-38.9,39-58.3,58.4c-3.7,3.7-1.1,1.2-4.8,4.8
		c7.2-1.4,11.8-2.2,19-3.6c14.9-2.8,31.5-6,46.3-8.8c6.8-6.6,3.6-3.6,16.3-16c16.3-15.9,28.3-34.2,33.3-56.6
		c7.4-32.7,1.9-63.1-17.6-90.8C481.4,29.7,460.1,15,433.5,8.1c-5.3-1.4-10.6-2.5-15.9-3.7l-21.3-0.4c-5.2,1.1-10.4,2.1-15.6,3.2
		c-21.9,4.6-40.1,15.8-55.9,31.2c-19,18.6-56.8,56.1-56.8,56.1l-60.2,60.2L152,210.5l-56.5,56.5l-23.2,23.2L137.8,277.9z"/>
	<path fill="#DBB335" d="M143,425.3c26.4,30.2,75,34,104.4,7.5c6.8-6.1,19.8-18.9,19.8-18.9l105.1-105.3l56.8-56.8
		c0,0-4.7,1.1-9.6,2.1c-17.2,3.3-55.9,10.2-55.9,10.2s-8.7,8.8-14.5,14.5c-18.8,18.4-55.9,55.9-55.9,55.9l-56.8,57.4
		c0,0-13.4,13-21.2,17.6c-14.4,8.4-33.9,3.9-44.8-9c-11.6-13.7-13.1-33.6-1.6-46.6c11.7-13.3,24.9-25.4,37.6-37.9
		c9.4-9.3,18.9-18.5,28.4-27.7c-11,2-22,4-33,6.1c-10.9,2-21.8,4-32.7,6c-2.8,2.7-5.6,5.5-8.4,8.2c-8.7,8.5-18,16.9-24.7,26.9
		C117.3,363.2,120.9,400.1,143,425.3z"/>
	<path fill="#DBB335" d="M487.6,245.5L381.7,351.4L242.1,490.9c0,0-10.7,10.7-16,16c-22.9,15.5-49.1,21.2-78.9,16.5
		c-33-5.3-58.8-22.7-77.4-50.5c-14.4-21.6-20.4-45.5-18.4-71.1c1.9-24.6,10.6-46.3,27.4-63.9c7.7-8.1,15.7-16.1,23.7-23.9
		c-20.6,3.6-46,9.1-66.6,12.6c-21,28.5-25,59.7-21.5,96.9C18.7,468,39.6,504.5,76,532c21.2,16,45,25.2,70.8,29.1
		c1.6,0.2,2.6,0.6,5.5,0.6c8,0.7,14.1,1.3,22.6,1c1.6-0.3,3.2-0.7,4.8-0.9c33.9-3.4,62.5-17.8,86.8-41.1
		c32.5-32.5,50.5-50.5,50.5-50.5l113.9-113.9l122.8-122.8L487.6,245.5z"/>
</g>
</svg>
