<?xml version="1.0" encoding="utf-8"?>
<!-- Generator: Adobe Illustrator 18.1.1, SVG Export Plug-In . SVG Version: 6.00 Build 0)  -->
<svg version="1.1" id="Layer_1" xmlns="http://www.w3.org/2000/svg" xmlns:xlink="http://www.w3.org/1999/xlink" x="0px" y="0px"
	 viewBox="0 0 283.5 283.5" enable-background="new 0 0 283.5 283.5" xml:space="preserve">
<g>
	<g>
		<path fill="#861710" d="M141.7,0H0l0,141.7l0,141.7h141.7h141.7V141.7V0L141.7,0z M141.7,49.8l83.9,52.3H57.9L141.7,49.8z
			 M226.6,185.6L226.6,185.6c0,8.4-6.8,15.2-15.2,15.2H72c-8.4,0-15.2-6.8-15.2-15.2v-80.2c0-0.9,0.1-1.7,0.2-2.6l80.1,50
			c0.1,0.1,0.2,0.1,0.3,0.2c0.1,0.1,0.2,0.1,0.3,0.2c0.6,0.3,1.1,0.5,1.7,0.7c0.1,0,0.1,0,0.2,0c0.7,0.2,1.3,0.3,2,0.3h0
			c0,0,0,0,0,0c0.7,0,1.3-0.1,2-0.3c0.1,0,0.1,0,0.2,0c0.6-0.2,1.2-0.4,1.7-0.7c0.1-0.1,0.2-0.1,0.3-0.2c0.1-0.1,0.2-0.1,0.3-0.2
			l80.1-50c0.1,0.8,0.2,1.7,0.2,2.6L226.6,185.6L226.6,185.6z"/>
	</g>
</g>
</svg>
