<?xml version="1.0" encoding="utf-8"?>
<!-- Generator: Adobe Illustrator 18.1.1, SVG Export Plug-In . SVG Version: 6.00 Build 0)  -->
<svg version="1.1" id="Layer_1" xmlns="http://www.w3.org/2000/svg" xmlns:xlink="http://www.w3.org/1999/xlink" x="0px" y="0px"
	 viewBox="0 0 283.5 283.5" enable-background="new 0 0 283.5 283.5" xml:space="preserve">
<path fill="#861710" d="M141.7,113.5c-15.5,0-28.2,12.6-28.2,28.2c0,15.5,12.7,28.2,28.2,28.2c15.5,0,28.2-12.7,28.2-28.2
	C169.9,126.2,157.3,113.5,141.7,113.5z M141.7,113.5c-15.5,0-28.2,12.6-28.2,28.2c0,15.5,12.7,28.2,28.2,28.2
	c15.5,0,28.2-12.7,28.2-28.2C169.9,126.2,157.3,113.5,141.7,113.5z M188.7,67.6H94.8c-15,0-27.2,12.2-27.2,27.2v93.9
	c0,15,12.2,27.2,27.2,27.2h93.9c15,0,27.2-12.2,27.2-27.2V94.8C215.9,79.8,203.7,67.6,188.7,67.6z M141.7,190.5
	c-26.9,0-48.8-21.9-48.8-48.8c0-26.9,21.9-48.8,48.8-48.8c26.9,0,48.8,21.9,48.8,48.8C190.5,168.6,168.6,190.5,141.7,190.5z
	 M192.1,103c-6.4,0-11.6-5.2-11.6-11.6c0-6.4,5.2-11.6,11.6-11.6s11.6,5.2,11.6,11.6C203.7,97.8,198.5,103,192.1,103z M141.7,113.5
	c-15.5,0-28.2,12.6-28.2,28.2c0,15.5,12.7,28.2,28.2,28.2c15.5,0,28.2-12.7,28.2-28.2C169.9,126.2,157.3,113.5,141.7,113.5z
	 M188.7,67.6H94.8c-15,0-27.2,12.2-27.2,27.2v93.9c0,15,12.2,27.2,27.2,27.2h93.9c15,0,27.2-12.2,27.2-27.2V94.8
	C215.9,79.8,203.7,67.6,188.7,67.6z M141.7,190.5c-26.9,0-48.8-21.9-48.8-48.8c0-26.9,21.9-48.8,48.8-48.8
	c26.9,0,48.8,21.9,48.8,48.8C190.5,168.6,168.6,190.5,141.7,190.5z M192.1,103c-6.4,0-11.6-5.2-11.6-11.6c0-6.4,5.2-11.6,11.6-11.6
	s11.6,5.2,11.6,11.6C203.7,97.8,198.5,103,192.1,103z M141.7,113.5c-15.5,0-28.2,12.6-28.2,28.2c0,15.5,12.7,28.2,28.2,28.2
	c15.5,0,28.2-12.7,28.2-28.2C169.9,126.2,157.3,113.5,141.7,113.5z M0,0v283.5h283.5V0H0z M236.5,188.7c0,26.4-21.4,47.8-47.8,47.8
	H94.8c-26.4,0-47.8-21.4-47.8-47.8V94.8C47,68.4,68.4,47,94.8,47h93.9c26.4,0,47.8,21.4,47.8,47.8L236.5,188.7L236.5,188.7z
	 M188.7,67.6H94.8c-15,0-27.2,12.2-27.2,27.2v93.9c0,15,12.2,27.2,27.2,27.2h93.9c15,0,27.2-12.2,27.2-27.2V94.8
	C215.9,79.8,203.7,67.6,188.7,67.6z M141.7,190.5c-26.9,0-48.8-21.9-48.8-48.8c0-26.9,21.9-48.8,48.8-48.8
	c26.9,0,48.8,21.9,48.8,48.8C190.5,168.6,168.6,190.5,141.7,190.5z M192.1,103c-6.4,0-11.6-5.2-11.6-11.6c0-6.4,5.2-11.6,11.6-11.6
	s11.6,5.2,11.6,11.6C203.7,97.8,198.5,103,192.1,103z M141.7,113.5c-15.5,0-28.2,12.6-28.2,28.2c0,15.5,12.7,28.2,28.2,28.2
	c15.5,0,28.2-12.7,28.2-28.2C169.9,126.2,157.3,113.5,141.7,113.5z M141.7,113.5c-15.5,0-28.2,12.6-28.2,28.2
	c0,15.5,12.7,28.2,28.2,28.2c15.5,0,28.2-12.7,28.2-28.2C169.9,126.2,157.3,113.5,141.7,113.5z M141.7,113.5
	c-15.5,0-28.2,12.6-28.2,28.2c0,15.5,12.7,28.2,28.2,28.2c15.5,0,28.2-12.7,28.2-28.2C169.9,126.2,157.3,113.5,141.7,113.5z
	 M188.7,67.6H94.8c-15,0-27.2,12.2-27.2,27.2v93.9c0,15,12.2,27.2,27.2,27.2h93.9c15,0,27.2-12.2,27.2-27.2V94.8
	C215.9,79.8,203.7,67.6,188.7,67.6z M141.7,190.5c-26.9,0-48.8-21.9-48.8-48.8c0-26.9,21.9-48.8,48.8-48.8
	c26.9,0,48.8,21.9,48.8,48.8C190.5,168.6,168.6,190.5,141.7,190.5z M192.1,103c-6.4,0-11.6-5.2-11.6-11.6c0-6.4,5.2-11.6,11.6-11.6
	s11.6,5.2,11.6,11.6C203.7,97.8,198.5,103,192.1,103z M141.7,113.5c-15.5,0-28.2,12.6-28.2,28.2c0,15.5,12.7,28.2,28.2,28.2
	c15.5,0,28.2-12.7,28.2-28.2C169.9,126.2,157.3,113.5,141.7,113.5z M141.7,113.5c-15.5,0-28.2,12.6-28.2,28.2
	c0,15.5,12.7,28.2,28.2,28.2c15.5,0,28.2-12.7,28.2-28.2C169.9,126.2,157.3,113.5,141.7,113.5z M141.7,113.5
	c-15.5,0-28.2,12.6-28.2,28.2c0,15.5,12.7,28.2,28.2,28.2c15.5,0,28.2-12.7,28.2-28.2C169.9,126.2,157.3,113.5,141.7,113.5z
	 M188.7,67.6H94.8c-15,0-27.2,12.2-27.2,27.2v93.9c0,15,12.2,27.2,27.2,27.2h93.9c15,0,27.2-12.2,27.2-27.2V94.8
	C215.9,79.8,203.7,67.6,188.7,67.6z M141.7,190.5c-26.9,0-48.8-21.9-48.8-48.8c0-26.9,21.9-48.8,48.8-48.8
	c26.9,0,48.8,21.9,48.8,48.8C190.5,168.6,168.6,190.5,141.7,190.5z M192.1,103c-6.4,0-11.6-5.2-11.6-11.6c0-6.4,5.2-11.6,11.6-11.6
	s11.6,5.2,11.6,11.6C203.7,97.8,198.5,103,192.1,103z M141.7,113.5c-15.5,0-28.2,12.6-28.2,28.2c0,15.5,12.7,28.2,28.2,28.2
	c15.5,0,28.2-12.7,28.2-28.2C169.9,126.2,157.3,113.5,141.7,113.5z"/>
</svg>
