<?xml version="1.0" encoding="utf-8"?>
<!-- Generator: Adobe Illustrator 18.1.1, SVG Export Plug-In . SVG Version: 6.00 Build 0)  -->
<svg version="1.1" id="Capa_1" xmlns="http://www.w3.org/2000/svg" xmlns:xlink="http://www.w3.org/1999/xlink" x="0px" y="0px"
	 viewBox="0 0 283.5 283.5" enable-background="new 0 0 283.5 283.5" xml:space="preserve">
<g>
	<g>
		<path fill="#861710" d="M141.7,0L0,0v141.7v141.7h141.7h141.7V141.7V0L141.7,0z M212.2,109.9l0.1,4.5c0,46.1-35.1,99.3-99.3,99.3
			c-19.7,0-38-5.8-53.5-15.7c2.7,0.3,5.5,0.5,8.3,0.5c16.4,0,31.4-5.6,43.3-14.9c-15.3-0.3-28.2-10.4-32.6-24.2
			c2.1,0.4,4.3,0.6,6.6,0.6c3.2,0,6.3-0.4,9.2-1.2c-16-3.2-28-17.3-28-34.2v-0.4c4.7,2.6,10.1,4.2,15.8,4.4
			c-9.4-6.3-15.5-16.9-15.5-29c0-6.4,1.7-12.4,4.7-17.5c17.2,21.1,42.9,35,71.9,36.5c-0.6-2.6-0.9-5.2-0.9-8
			c0-19.3,15.6-34.9,34.9-34.9c10,0,19.1,4.2,25.5,11c7.9-1.6,15.4-4.5,22.2-8.5c-2.6,8.1-8.1,15-15.3,19.3c7-0.8,13.8-2.7,20-5.5
			C225,98.9,219.1,105,212.2,109.9z"/>
	</g>
</g>
</svg>
