<?xml version="1.0" encoding="utf-8"?>
<!-- Generator: Adobe Illustrator 18.1.1, SVG Export Plug-In . SVG Version: 6.00 Build 0)  -->
<svg version="1.1" id="Capa_1" xmlns="http://www.w3.org/2000/svg" xmlns:xlink="http://www.w3.org/1999/xlink" x="0px" y="0px"
	 viewBox="-164 42.3 512 512" enable-background="new -164 42.3 512 512" xml:space="preserve">
<g>
	
		<image overflow="visible" opacity="0.75" width="512" height="466" xlink:href="947296D41F341BD4.png"  transform="matrix(1 0 0 1 -164 65.28)">
	</image>
	<g>
		<g>
			<g id="Clips_10_">
				<g>
					<path fill="#8C8C8C" d="M295.7,116.6c-48.4-48.4-126.9-48.4-175.3,0l-241.1,241.1c-36.3,36.3-36.3,95.2,0,131.5
						c29.9,29.9,75.1,34.8,110.4,15.3c3.7-0.2,7.3-1.6,10.1-4.4l241.1-241.1c24.2-24.2,24.2-63.5,0-87.7s-63.5-24.2-87.7,0
						L-44,368.7c-6,6-6,15.9,0,21.9c6,6,15.9,6,21.9,0l197.3-197.3c12.1-12.1,31.7-12.1,43.8,0c12.1,12.1,12.1,31.7,0,43.8
						L-11.2,467.4c-24.2,24.2-63.5,24.2-87.7,0s-24.2-63.5,0-87.7l241.1-241.2c36.3-36.3,95.2-36.3,131.5,0
						c36.3,36.3,36.3,95.2,0,131.5L54.6,489.3c-6,6-6,15.9,0,21.9c6,6,15.9,6,21.9,0L295.7,292C344.1,243.6,344.1,165.1,295.7,116.6
						z"/>
				</g>
			</g>
		</g>
	</g>
</g>
</svg>
