<?xml version="1.0" encoding="utf-8"?>
<!-- Generator: Adobe Illustrator 18.1.1, SVG Export Plug-In . SVG Version: 6.00 Build 0)  -->
<svg version="1.1" id="Capa_1" xmlns="http://www.w3.org/2000/svg" xmlns:xlink="http://www.w3.org/1999/xlink" x="0px" y="0px"
	 viewBox="-27 27.9 512 512" enable-background="new -27 27.9 512 512" xml:space="preserve">
<g id="pin">
	<path id="XMLID_11_" fill="#FFFFFF" d="M386,88.6C326.5,25.9,207.5,13,178.5,54.8c0,0-43.4,45,6.4,99.7l-48.2,80.4
		c0,0-69.2,35.4-93.3,80.4c0,0-5.8,52.7,98.3,109.1l-38.5,107.1l12.6,5.7l54-100.9c31.6,8.7,116.5,27.1,156.6-11.7
		c0,0,20.9-54.7-8-112.6l14.5-101.3c0,0,40.2-1.6,51.5-9.7C395.6,193.1,445.5,151.3,386,88.6z"/>
</g>
</svg>
