<?xml version="1.0" encoding="utf-8"?>
<!-- Generator: Adobe Illustrator 18.1.1, SVG Export Plug-In . SVG Version: 6.00 Build 0)  -->
<svg version="1.1" id="Capa_1" xmlns="http://www.w3.org/2000/svg" xmlns:xlink="http://www.w3.org/1999/xlink" x="0px" y="0px"
	 viewBox="0 0 1417.3 1984.2" enable-background="new 0 0 1417.3 1984.2" xml:space="preserve">
<g enable-background="new    ">
	<path fill="#1D1D1B" d="M346.1,1655.9c-11.4,0-22.1-2.4-32.1-7.2c-10-4.8-18.8-11.2-26.2-19.4c-7.5-8.1-13.4-17.7-17.7-28.6
		c-4.3-10.9-6.5-22.4-6.5-34.4c0-12.3,2.2-23.8,6.5-34.6c4.3-10.8,10.3-20.3,17.9-28.6c7.6-8.2,16.4-14.8,26.4-19.6
		c10-4.8,20.6-7.2,31.8-7.2c11.1,0,21.7,2.4,31.8,7.2c10,4.8,18.8,11.3,26.2,19.6c7.5,8.2,13.4,17.8,17.9,28.6
		c4.5,10.8,6.7,22.3,6.7,34.6c0,12-2.2,23.5-6.5,34.4c-4.3,10.9-10.3,20.4-17.7,28.6c-7.5,8.1-16.2,14.6-26.2,19.4
		C368.1,1653.5,357.4,1655.9,346.1,1655.9z M270.2,1567c0,11.1,2,21.7,6,31.8c4,10,9.4,18.8,16.2,26.2c6.8,7.5,14.8,13.4,23.9,17.7
		c9.1,4.3,18.9,6.5,29.4,6.5c10.2,0,20-2.2,29.2-6.7c9.2-4.5,17.4-10.5,24.4-18c7-7.6,12.5-16.4,16.5-26.4c4-10,6-20.7,6-32.1
		c0-11.1-2-21.7-6-31.8c-4-10-9.5-18.8-16.4-26.4c-6.9-7.6-15-13.6-24.2-18c-9.3-4.5-19-6.7-29.2-6.7c-10.3,0-20,2.2-29.2,6.7
		c-9.2,4.5-17.3,10.5-24.2,18.2c-6.9,7.7-12.4,16.6-16.4,26.7C272.2,1544.9,270.2,1555.6,270.2,1567z"/>
	<path fill="#1D1D1B" d="M472.1,1434.3v-25.7h6.7v25.7H472.1z M472.1,1652.6v-173.5h6.7v173.5H472.1z"/>
	<path fill="#1D1D1B" d="M669.6,1652.6H663V1556c0-25.4-3.5-43.9-10.5-55.5c-7-11.6-18.3-17.4-33.9-17.4c-8.5,0-16.8,1.5-24.9,4.5
		c-8.1,3-15.7,7.2-22.6,12.5c-6.9,5.3-12.9,11.7-18.1,19.1c-5.1,7.4-8.9,15.3-11.4,23.7v109.6h-6.7v-173.5h6.7v44.8
		c3.6-6.9,8.1-13.3,13.7-19.2c5.6-5.9,11.7-10.9,18.4-15c6.7-4.1,13.8-7.4,21.4-9.7c7.6-2.3,15.3-3.5,23.1-3.5
		c17.8,0,30.9,6.4,39.1,19.2c8.2,12.8,12.4,32.9,12.4,60.3V1652.6z"/>
	<path fill="#1D1D1B" d="M805.4,1415.2h6l103.3,237.3h-7.4l-37.1-84.9h-124l-37.1,84.9h-7.4L805.4,1415.2z M867.2,1561l-58.8-136
		l-59.5,136H867.2z"/>
	<path fill="#1D1D1B" d="M1026.6,1655.9c-7.8,0-15.2-1.2-22.1-3.5c-6.9-2.3-13.4-5.5-19.4-9.4c-6-3.9-11.5-8.5-16.4-13.7
		c-4.9-5.2-9.2-10.7-13-16.5v111h-6.7v-244.7h6.7v36.8c3.6-5.8,7.9-11.1,13-15.9c5.1-4.8,10.6-9,16.5-12.5
		c5.9-3.6,12.1-6.3,18.6-8.2c6.5-1.9,13-2.8,19.7-2.8c12.3,0,23.5,2.6,33.8,7.9c10.2,5.2,19.1,12.1,26.4,20.6
		c7.4,8.5,13.1,18,17.2,28.7c4.1,10.7,6.2,21.6,6.2,32.8c0,11.8-2,23.1-5.8,33.9c-3.9,10.8-9.4,20.3-16.4,28.6
		c-7,8.2-15.5,14.8-25.4,19.7C1049.6,1653.4,1038.7,1655.9,1026.6,1655.9z M1026.6,1649.2c11.4,0,21.6-2.4,30.6-7.2
		c9-4.8,16.8-11.1,23.2-18.9c6.5-7.8,11.4-16.7,14.9-26.6c3.5-9.9,5.2-20,5.2-30.3c0-10.9-2-21.4-6-31.4c-4-10-9.5-18.9-16.4-26.6
		c-6.9-7.7-15-13.8-24.4-18.4c-9.4-4.6-19.4-6.9-30.1-6.9c-6.7,0-13.9,1.5-21.7,4.3c-7.8,2.9-15,6.8-21.7,11.7
		c-6.7,4.9-12.3,10.6-16.9,17c-4.6,6.5-7.1,13.2-7.5,20.1v62.5c3.1,7.1,7.1,13.8,12,19.9c4.9,6.1,10.4,11.4,16.5,15.9
		c6.1,4.5,12.8,8,19.9,10.7C1011.4,1647.9,1018.8,1649.2,1026.6,1649.2z"/>
	<path fill="#1D1D1B" d="M1228.2,1655.9c-7.8,0-15.2-1.2-22.1-3.5c-6.9-2.3-13.4-5.5-19.4-9.4c-6-3.9-11.5-8.5-16.4-13.7
		c-4.9-5.2-9.2-10.7-13-16.5v111h-6.7v-244.7h6.7v36.8c3.6-5.8,7.9-11.1,13-15.9c5.1-4.8,10.6-9,16.5-12.5
		c5.9-3.6,12.1-6.3,18.6-8.2c6.5-1.9,13-2.8,19.7-2.8c12.3,0,23.5,2.6,33.8,7.9c10.2,5.2,19.1,12.1,26.4,20.6
		c7.4,8.5,13.1,18,17.2,28.7c4.1,10.7,6.2,21.6,6.2,32.8c0,11.8-2,23.1-5.8,33.9c-3.9,10.8-9.4,20.3-16.4,28.6
		c-7,8.2-15.5,14.8-25.4,19.7C1251.2,1653.4,1240.2,1655.9,1228.2,1655.9z M1228.2,1649.2c11.4,0,21.6-2.4,30.6-7.2
		c9-4.8,16.8-11.1,23.2-18.9c6.5-7.8,11.4-16.7,14.9-26.6c3.5-9.9,5.2-20,5.2-30.3c0-10.9-2-21.4-6-31.4c-4-10-9.5-18.9-16.4-26.6
		c-6.9-7.7-15-13.8-24.4-18.4c-9.4-4.6-19.4-6.9-30.1-6.9c-6.7,0-13.9,1.5-21.7,4.3c-7.8,2.9-15,6.8-21.7,11.7
		c-6.7,4.9-12.3,10.6-16.9,17c-4.6,6.5-7.1,13.2-7.5,20.1v62.5c3.1,7.1,7.1,13.8,12,19.9c4.9,6.1,10.4,11.4,16.5,15.9
		c6.1,4.5,12.8,8,19.9,10.7C1212.9,1647.9,1220.4,1649.2,1228.2,1649.2z"/>
</g>
<path fill="#861811" d="M177.4,1651.8c28.3,1.9,54.5-20.8,56-49.1c0.3-6.5,0.4-13.1,0.4-19.6c0.5-35.4,0.9-70.9,1.3-106.3
	c0.2-20.2,0.5-40.5,0.7-60.7c-2,2.9-4,5.9-5.9,8.8c-7,10.4-14,20.7-21,31.1c-0.1,5.8-0.2,11.7-0.2,17.5c-0.2,18.9-0.4,37.7-0.6,56.6
	c-0.2,19.2-0.3,38.4-0.8,57.5c-0.1,6.6-0.2,13.4-1.8,19.7c-3,11.6-15,19.2-26.9,18.2c-12.7-1.1-23.4-10.4-24.1-22.8
	c-0.8-12.7-0.3-25.5-0.2-38.2c0.1-9.5,0.2-19,0.3-28.4c-4.5,6.6-9,13.2-13.5,19.8c-4.4,6.5-8.9,13.1-13.3,19.6
	c0,2.8-0.1,5.6-0.1,8.4c-0.1,8.7-0.5,17.7,1.1,26.1C133.4,1633.3,153.7,1650.2,177.4,1651.8z"/>
<g>
	<path fill="#851812" d="M559.5,842.9V627.3c0,10.6-0.7,502.6,0.1-253.6c0.1-51.2,23-89.3,70-111.1c34.1-15.7,69.3-14.3,102.3,3.6
		c37.1,20,61.3,51.7,61.5,93.8c0.1,42.8,0.1,85.8,0.1,128.7c0,8.2,0.1,2.5,0,10.7c6.4-9.4,10.6-15.5,17-24.9
		c13.3-19.5,28.1-41.3,41.4-60.8c0.2-14.8,0-7.9,0.3-35.7c0.4-35.4-6.5-68.9-25.7-99.2C798.6,234.6,759,207.2,707,198
		c-42.3-7.4-81.9-0.2-118.8,21.6c-7.3,4.3-14.4,9-21.6,13.5l-23.9,23.1c-4.6,6.9-9.2,13.7-13.7,20.6c-19.1,29.2-26.8,61.6-27.2,96
		c-0.4,41.5-0.8,124.5-0.8,124.5v132.8L500.9,753l0.1,124.6v51.1L559.5,842.9z"/>
	<path fill="#0686A1" d="M727.7,999.7c62.4,4.2,120.1-45.2,123.4-106.8c0.8-14.2,1-42.7,1-42.7l-0.2-231.9V493c0,0-4,6.5-8.3,12.9
		c-15.4,22.6-50.4,73-50.4,73s0.1,19.3,0,32c-0.5,41,0,123.2,0,123.2l0.6,125.9c0,0-0.4,29.1-4,42.8c-6.6,25.1-33.1,41.7-59.3,39.5
		c-27.9-2.3-51.5-22.6-53.2-49.5c-1.8-27.6-0.6-55.4-0.4-83.2c0.2-20.6,0.4-41.3,0.7-61.9c-9.9,14.3-19.8,28.7-29.7,43
		c-9.8,14.2-19.6,28.4-29.4,42.6c-0.1,6.1-0.1,12.2-0.2,18.3c-0.2,19-1.1,38.4,2.5,56.9C630.9,959.6,675.6,996.2,727.7,999.7z"/>
	<path fill="#C47D11" d="M909.3,421.6v233.5v307.6c0,0,0,23.6,0,35.3c-8.2,42.3-30.8,77.6-68.8,105.1
		c-42.2,30.5-89.9,39.9-141.1,29.7c-39.7-7.9-72.7-27.7-98.7-58.1c-25-29.2-39.3-62.8-40.3-100.7c-0.5-17.5-0.4-35-0.2-52.5
		c-18.8,26.6-40.7,60.7-59.5,87.2c8.3,54.5,38.2,93.5,83.2,130.5c53.9,44.5,117.1,61.7,187.7,51.8c41-5.7,77.3-21.8,110.1-45.9
		c2-1.5,3.6-2.3,6.8-5.4c9.6-8,16.9-14.1,26-23.8c1.4-2.1,2.7-4.3,4.3-6.2c33.6-41.1,49.3-88.5,50.4-141c0-71.7,0-111.3,0-111.3
		v-251V335.6L909.3,421.6z"/>
</g>
</svg>
